<?xml version="1.0" encoding="UTF-8"?>
<svg xmlns="http://www.w3.org/2000/svg" width="536.17" height="79.08" viewBox="0 0 536.17 79.08">
  <g>
    <path d="M 58.12,0
 L 116.22,58.06
 L 95.67,78.77
 L 80.96,78.77
 L 101.30,58.16
 L 58.12,14.27
 L 14.94,58.16
 L 35.28,78.77
 L 20.57,78.77
 L 0.02,58.06
 Z"/>
    <path d="M 83.26,59.09
 H 32.98
 V 48.4
 H 52.76
 V 28.61
 H 63.48
 V 48.4
 H 83.26
 Z"/>
    <polygon points="63.48,78.77 52.76,78.77 52.76,63.57 63.48,63.57"/>
    <path d="M199.99,79.06 V46.75 L179.65,78.63 H167.93 L147.47,46.57 L147.45,78.76 H137.30 L137.33,28.87 H147.45 L173.76,69.82 L200.07,28.87 C203.51,28.64 206.82,28.49 210.64,28.82 L210.66,79.06 Z"/>
    <polygon points="244.58,69.94 282.77,69.94 282.77,79.08 233.25,79.08 233.25,28.85 282.77,28.85 282.77,38.55 244.58,38.55"/>
    <path d="M275.58,58.20 H244.58 V49.69 H275.58 Z"/>
    <path d="M303.55,78.76 V28.85 H326.75 C333.67,28.85 339.25,29.40 343.51,30.50 C347.77,31.60 351.46,33.47 354.57,36.10 C359.51,40.28 361.97,45.79 361.97,52.62 C361.97,60.91 358.91,67.34 352.78,71.91 C346.65,76.47 338.02,78.75 326.90,78.75 Z M317.31,69.42 H328.71 C336.84,69.42 342.61,68.01 345.99,65.19 C349.63,62.19 351.46,58.17 351.46,53.11 C351.46,48.37 349.67,44.64 346.08,41.93 C343.91,40.28 341.31,39.15 338.29,38.54 C335.27,37.93 330.72,37.63 324.65,37.63 H317.31 Z"/>
    <path d="M424.60,50.71 V58.70 H393.29 V78.70 H383.31 V28.84 H432.04 V37.38 H393.87 V50.71 Z"/>
    <path d="M463.58,78.77 H453.64 V28.82 H463.58 Z"/>
    <polygon points="536.17,38.18 482.78,38.18 482.78,28.09 536.17,28.09"/>
    <polygon points="515.06,78.74 503.89,78.74 503.89,42.74 515.06,42.74"/>
  </g>
</svg>