<?xml version="1.0" encoding="UTF-8"?><svg id="Layer_2" xmlns="http://www.w3.org/2000/svg" width="401.76" height="52.64" viewBox="0 0 401.76 52.64"><g id="Layer_1-2"><path d="M0,0h18.32l19.12,40.72h.08L56.48,0h17.76v52.64h-11.04V7.6h-.08l-21.36,45.04h-9.52L10.8,7.6h-.16v45.04H0V0Z"/><path d="M97.04,0h48.88v8.72h-37.84v13.84h29.84v7.2h-29.84v14.16h38.64v8.72h-49.68V0Z"/><path d="M167.36,0h25.84c24.8,0,32.48,12.16,32.48,26.32,0,16.72-8.4,26.32-30.24,26.32h-28.08V0ZM195.12,43.92c14,0,19.6-6,19.6-17.6,0-9.76-4.96-17.6-21.12-17.6h-15.2v35.2h16.72Z"/><path d="M246.56,0h47.68v8.72h-36.64v15.36h31.04v7.68h-31.04v20.88h-11.04V0Z"/><path d="M314.4,0h10.96v52.64h-10.96V0Z"/><path d="M368,8.72h-22.72V0h56.48v8.72h-22.72v43.92h-11.04V8.72Z"/></g></svg>