<?xml version="1.0" encoding="UTF-8"?>
<svg id="Layer_1" data-name="Layer 1" xmlns="http://www.w3.org/2000/svg" viewBox="0 0 1642.28 417">
  <defs>
    <style>
      .cls-1 {
        fill: #141414;
      }

      .cls-1, .cls-2, .cls-3, .cls-4, .cls-5 {
        stroke: #fff;
        stroke-miterlimit: 10;
        stroke-width: 3px;
      }

      .cls-2 {
        fill: #8c8c8c;
      }

      .cls-3 {
        fill: #393939;
      }

      .cls-4 {
        fill: #3c3c3b;
      }

      .cls-6 {
        fill: #fff;
      }

      .cls-5 {
        fill: #343434;
      }
    </style>
  </defs>
  <g>
    <polygon class="cls-5" points="149.34 7.47 146.64 16.63 146.64 282.48 149.34 285.17 272.74 212.23 149.34 7.47"/>
    <polygon class="cls-2" points="149.34 7.47 25.93 212.23 149.34 285.17 149.34 156.14 149.34 7.47"/>
    <polygon class="cls-4" points="149.34 308.54 147.82 310.39 147.82 405.09 149.34 409.53 272.82 235.63 149.34 308.54"/>
    <polygon class="cls-2" points="149.34 409.53 149.34 308.54 25.93 235.63 149.34 409.53"/>
    <polygon class="cls-1" points="149.34 285.17 272.74 212.23 149.34 156.14 149.34 285.17"/>
    <polygon class="cls-3" points="25.93 212.23 149.34 285.17 149.34 156.14 25.93 212.23"/>
  </g>
  <g>
    <path class="cls-6" d="M377.71,178.66h19.2l30.48,84h-18.12l-6.12-17.88h-31.8l-6,17.88h-17.88l30.24-84ZM398.71,231.82l-11.4-33.48h-.24l-11.28,33.48h22.92Z"/>
    <path class="cls-6" d="M434.71,178.66h17.64l35.4,56.4h.24v-56.4h16.92v84h-17.76l-35.28-56.16h-.24v56.16h-16.92v-84Z"/>
    <path class="cls-6" d="M541.99,230.74l-29.64-52.08h19.2l19.2,35.88h.36l18.96-35.88h18.96l-29.52,52.32v31.68h-17.52v-31.92Z"/>
    <path class="cls-6" d="M636.91,258.64c-6-3.72-10.54-8.86-13.62-15.42-3.08-6.56-4.62-14.08-4.62-22.56s1.54-15.9,4.62-22.5c3.08-6.6,7.62-11.78,13.62-15.54,6-3.76,13.2-5.64,21.6-5.64,10.96,0,19.6,2.98,25.92,8.94,6.32,5.96,10.12,13.9,11.4,23.82h-17.52c-.88-5.76-3.02-10.28-6.42-13.56-3.4-3.28-7.86-4.92-13.38-4.92-6.88,0-12.28,2.56-16.2,7.68-3.92,5.12-5.88,12.36-5.88,21.72s1.96,16.58,5.88,21.66c3.92,5.08,9.32,7.62,16.2,7.62,5.6,0,10.12-1.56,13.56-4.68,3.44-3.12,5.6-7.64,6.48-13.56h17.76c-1.2,10-5.06,17.92-11.58,23.76-6.52,5.84-15.26,8.76-26.22,8.76-8.4,0-15.6-1.86-21.6-5.58Z"/>
    <path class="cls-6" d="M705.79,178.66h35.76c10.32,0,18,2.16,23.04,6.48s7.56,10.04,7.56,17.16c0,5.6-1.36,10.32-4.08,14.16-2.72,3.84-6.16,6.24-10.32,7.2v.24c3.76.56,6.72,2.56,8.88,6,2.16,3.44,3.44,7.8,3.84,13.08.32,4.56.76,8.62,1.32,12.18.56,3.56,1.12,5.82,1.68,6.78v.72h-17.64c-.88-1.52-1.64-7.4-2.28-17.64-.24-4.4-1.34-7.7-3.3-9.9-1.96-2.2-5.1-3.3-9.42-3.3h-17.64v30.84h-17.4v-84ZM739.14,218.5c4.88,0,8.66-1.1,11.34-3.3,2.68-2.2,4.02-5.54,4.02-10.02,0-4-1.22-7.06-3.66-9.18-2.44-2.12-6.06-3.18-10.86-3.18h-16.8v25.68h15.96Z"/>
    <path class="cls-6" d="M803.1,230.74l-29.64-52.08h19.2l19.2,35.88h.36l18.96-35.88h18.96l-29.52,52.32v31.68h-17.52v-31.92Z"/>
    <path class="cls-6" d="M857.58,178.66h35.64c10.08,0,17.56,2.54,22.44,7.62,4.88,5.08,7.32,11.74,7.32,19.98,0,5.12-1.06,9.76-3.18,13.92-2.12,4.16-5.42,7.5-9.9,10.02-4.48,2.52-10.16,3.78-17.04,3.78h-17.88v28.68h-17.4v-84ZM890.7,219.46c4.96,0,8.64-1.14,11.04-3.42,2.4-2.28,3.6-5.54,3.6-9.78s-1.18-7.5-3.54-9.78c-2.36-2.28-5.98-3.42-10.86-3.42h-15.96v26.4h15.72Z"/>
    <path class="cls-6" d="M950.58,193.42h-22.92v-14.76h63.24v14.76h-22.92v69.24h-17.4v-69.24Z"/>
    <path class="cls-6" d="M1009.62,258.64c-6.16-3.72-10.84-8.86-14.04-15.42-3.2-6.56-4.8-14.08-4.8-22.56s1.62-15.9,4.86-22.5,7.96-11.78,14.16-15.54c6.2-3.76,13.5-5.64,21.9-5.64s15.9,1.88,22.02,5.64c6.12,3.76,10.78,8.94,13.98,15.54,3.2,6.6,4.8,14.1,4.8,22.5s-1.6,16-4.8,22.56c-3.2,6.56-7.86,11.7-13.98,15.42-6.12,3.72-13.46,5.58-22.02,5.58s-15.92-1.86-22.08-5.58ZM1011.48,236.44c1.96,4.44,4.68,7.82,8.16,10.14,3.48,2.32,7.5,3.48,12.06,3.48,6.96,0,12.54-2.58,16.74-7.74,4.2-5.16,6.3-12.38,6.3-21.66s-2.1-16.42-6.3-21.66c-4.2-5.24-9.78-7.86-16.74-7.86-4.56,0-8.58,1.18-12.06,3.54-3.48,2.36-6.2,5.76-8.16,10.2-1.96,4.44-2.94,9.7-2.94,15.78s.98,11.34,2.94,15.78Z"/>
    <path class="cls-6" d="M1102.38,178.66h18.24l14.16,61.2h.24l15.36-61.2h16.08l15.36,61.2h.36l14.04-61.2h18l-22.32,84h-18.6l-14.64-58.08h-.24l-15.12,58.08h-18.72l-22.2-84Z"/>
    <path class="cls-6" d="M1236.3,178.66h19.2l30.48,84h-18.12l-6.12-17.88h-31.8l-6,17.88h-17.88l30.24-84ZM1257.3,231.82l-11.4-33.48h-.24l-11.28,33.48h22.92Z"/>
    <path class="cls-6" d="M1293.3,178.66h17.4v69.12h37.32v14.88h-54.72v-84Z"/>
    <path class="cls-6" d="M1356.66,178.66h17.4v69.12h37.32v14.88h-54.72v-84Z"/>
    <path class="cls-6" d="M1420.02,178.66h59.88v14.4h-42.48v19.68h35.16v13.8h-35.16v21.24h43.56v14.88h-60.96v-84Z"/>
    <path class="cls-6" d="M1510.62,193.42h-22.92v-14.76h63.24v14.76h-22.92v69.24h-17.4v-69.24Z"/>
  </g>
</svg>
