<?xml version="1.0" encoding="UTF-8"?>
<svg id="Layer_1" data-name="Layer 1" xmlns="http://www.w3.org/2000/svg" viewBox="0 0 162.28 32">
  <defs>
    <style>
      .cls-1 {
        fill: #4285f4;
      }

      .cls-2 {
        fill: #34a853;
      }

      .cls-3 {
        fill: #fbbc04;
      }

      .cls-4 {
        fill: #fff;
      }

      .cls-5 {
        fill: #ea4335;
      }
    </style>
  </defs>
  <path class="cls-4" d="M159.36,13.46l-3,7.64h-.09l-3.13-7.64h-2.83l4.69,10.68-2.68,5.94h2.75l7.23-16.62h-2.94ZM138.16,7.12h-2.62v17.62h2.62V7.12ZM128.3,7.12h-6.3v17.62h2.64v-6.67h3.67c3.09.11,5.67-2.31,5.78-5.4,0-.02,0-.05,0-.07-.06-3.09-2.62-5.55-5.72-5.48-.02,0-.05,0-.07,0ZM128.37,15.61h-3.73v-6h3.74c1.66,0,3,1.34,3,3s-1.34,3-3,3h0ZM144.62,13.08c-1.96-.11-3.8.95-4.69,2.7l2.34,1c.47-.87,1.42-1.37,2.4-1.28,1.38-.14,2.62.87,2.76,2.26,0,0,0,0,0,.01v.18c-.84-.45-1.78-.69-2.73-.69-2.51,0-5.07,1.38-5.07,4,0,2.36,2.05,3.88,4.37,3.88,1.35.09,2.63-.58,3.34-1.72h.1v1.36h2.56v-6.78c0-3.13-2.34-4.87-5.36-4.87l-.02-.05ZM144.31,22.74c-.86,0-2.06-.44-2.06-1.5,0-1.36,1.49-1.88,2.79-1.88.84-.02,1.67.18,2.4.59-.2,1.58-1.54,2.77-3.13,2.79h0ZM49.49,25.12c-5.18.02-9.41-4.13-9.49-9.31.08-5.18,4.31-9.33,9.49-9.31,2.4-.04,4.71.89,6.41,2.57l-1.81,1.79c-1.23-1.2-2.88-1.87-4.6-1.86-3.74,0-6.77,3.03-6.77,6.77s3.03,6.77,6.77,6.77c1.77.07,3.48-.61,4.72-1.87.81-.88,1.3-2.01,1.39-3.2h-6.11v-2.47h8.6c.09.52.14,1.06.13,1.59.09,2.21-.71,4.37-2.21,6-1.71,1.73-4.09,2.65-6.52,2.53ZM71.52,19.12c.13,3.28-2.41,6.04-5.69,6.18-3.28.13-6.04-2.41-6.18-5.69,0-.16,0-.32,0-.49-.13-3.28,2.41-6.04,5.69-6.18,3.28-.13,6.04,2.41,6.18,5.69,0,.16,0,.32,0,.49ZM68.92,19.12c.17-1.84-1.18-3.48-3.02-3.65-1.84-.17-3.48,1.18-3.65,3.02-.02.21-.02.42,0,.63-.17,1.84,1.18,3.48,3.02,3.65,1.84.17,3.48-1.18,3.65-3.02.02-.21.02-.42,0-.63ZM84.82,19.12c0,3.28-2.65,5.93-5.93,5.93s-5.93-2.65-5.93-5.93,2.65-5.93,5.93-5.93,5.93,2.65,5.93,5.93ZM82.23,19.12c.17-1.84-1.18-3.48-3.02-3.65-1.84-.17-3.48,1.18-3.65,3.02-.02.21-.02.42,0,.63-.17,1.84,1.18,3.48,3.02,3.65,1.84.17,3.48-1.18,3.65-3.02.02-.21.02-.42,0-.63ZM97.8,13.49v10.77c0,4.42-2.63,6.24-5.73,6.24-2.32.02-4.43-1.36-5.34-3.5l2.27-1c.48,1.25,1.66,2.09,3,2.13,2,0,3.22-1.23,3.22-3.52v-.86h-.1c-.79.89-1.93,1.38-3.12,1.37-3.31,0-6-2.69-6-6s2.69-6,6-6c1.2-.03,2.35.46,3.16,1.34h.1v-1h2.54v.03ZM95.47,19.15c.15-1.87-1.24-3.5-3.1-3.65-.04,0-.07,0-.11,0-1.92.06-3.43,1.67-3.36,3.59,0,.02,0,.04,0,.07-.09,1.9,1.38,3.52,3.29,3.61.02,0,.05,0,.07,0,1.85-.07,3.29-1.63,3.22-3.48,0-.04,0-.09,0-.13ZM102.43,7.14v17.61h-2.64V7.14h2.64ZM112.83,21.1l2.06,1.36c-1.12,1.67-2.99,2.67-5,2.66-3.21.05-5.85-2.52-5.89-5.73,0-.09,0-.18,0-.27-.26-3.04,1.99-5.71,5.02-5.98,2.56-.22,4.93,1.35,5.73,3.8l.27.69-8,3.31c.51,1.15,1.67,1.87,2.92,1.82,1.18-.02,2.28-.65,2.89-1.66ZM106.52,18.94l5.38-2.22c-.43-.83-1.31-1.33-2.24-1.27-1.82.08-3.22,1.62-3.14,3.43,0,.02,0,.04,0,.06Z"/>
  <path class="cls-5" d="M13.54,15.28L.12,29.34c.55,1.93,2.56,3.06,4.49,2.51.29-.08.57-.2.84-.35l15.1-8.6-7.01-7.62Z"/>
  <path class="cls-3" d="M27.11,12.89l-6.53-3.74-7.35,6.45,7.38,7.28,6.48-3.7c1.74-.91,2.41-3.05,1.5-4.79-.34-.64-.86-1.16-1.5-1.5h.02Z"/>
  <path class="cls-1" d="M.12,2.66c-.08.3-.12.61-.12.92v24.84c0,.31.04.62.12.92l13.88-13.7L.12,2.66Z"/>
  <path class="cls-2" d="M13.64,16l6.94-6.85L5.5.51C4.93.18,4.29,0,3.63,0,2,0,.56,1.08.12,2.65l13.52,13.35Z"/>
</svg>
