<?xml version="1.0" encoding="UTF-8"?>
<svg id="Layer_1" data-name="Layer 1" xmlns="http://www.w3.org/2000/svg" viewBox="0 0 172 33">
  <defs>
    <style>
      .cls-1 {
        fill: #c0ac9d;
        stroke: #c0ac9d;
      }

      .cls-1, .cls-2, .cls-3, .cls-4, .cls-5, .cls-6, .cls-7, .cls-8, .cls-9, .cls-10 {
        stroke-linecap: round;
        stroke-linejoin: round;
        stroke-width: .25px;
      }

      .cls-2 {
        fill: #cc6228;
        stroke: #cc6228;
      }

      .cls-3 {
        fill: #f5841f;
        stroke: #f5841f;
      }

      .cls-11 {
        fill: #fff;
      }

      .cls-4 {
        fill: #d5bfb2;
        stroke: #d5bfb2;
      }

      .cls-5 {
        fill: #e17726;
        stroke: #e17726;
      }

      .cls-6 {
        fill: #e27525;
        stroke: #e27525;
      }

      .cls-7 {
        fill: #e27625;
        stroke: #e27625;
      }

      .cls-8 {
        fill: #233447;
        stroke: #233447;
      }

      .cls-9 {
        fill: #763e1a;
        stroke: #763e1a;
      }

      .cls-10 {
        fill: #161616;
        stroke: #161616;
      }
    </style>
  </defs>
  <path class="cls-11" d="M151.26,16.64c-.88-.58-1.86-1-2.78-1.52-.6-.34-1.24-.63-1.75-1.06-.88-.73-.7-2.15.22-2.77,1.33-.88,3.52-.39,3.75,1.41,0,.04.04.06.08.06h2c.05,0,.09-.04.08-.09-.1-1.24-.59-2.28-1.47-2.94-.85-.63-1.81-.97-2.83-.97-5.29,0-5.77,5.58-2.92,7.35.32.21,3.12,1.61,4.11,2.22.99.61,1.3,1.72.87,2.6-.39.8-1.4,1.36-2.42,1.3-1.1-.06-1.96-.66-2.26-1.59-.05-.17-.08-.49-.08-.63,0-.04-.04-.08-.08-.08h-2.17s-.08.04-.08.08c0,1.57.39,2.44,1.46,3.23,1,.75,2.09,1.06,3.22,1.06,2.96,0,4.49-1.67,4.81-3.41.27-1.7-.23-3.23-1.75-4.24Z"/>
  <path class="cls-11" d="M57.06,9.05h-2.01s-.07.03-.08.05l-1.78,5.86c-.03.08-.13.08-.16,0l-1.78-5.86s-.04-.05-.08-.05h-3.31s-.08.04-.08.08v14.95s.04.08.08.08h2.17s.08-.04.08-.08v-11.36c0-.09.13-.1.16-.03l1.79,5.9.13.41s.04.05.08.05h1.66s.06-.03.08-.05l.13-.41,1.79-5.9c.03-.09.16-.06.16.03v11.36s.04.08.08.08h2.17s.08-.04.08-.08v-14.95s-.04-.08-.08-.08h-1.27Z"/>
  <path class="cls-11" d="M118.04,9.05s-.07.03-.08.05l-1.78,5.86c-.03.08-.13.08-.16,0l-1.78-5.86s-.04-.05-.08-.05h-3.3s-.08.04-.08.08v14.95s.04.08.08.08h2.17s.08-.04.08-.08v-11.36c0-.09.13-.1.16-.03l1.79,5.9.13.41s.04.05.08.05h1.66s.07-.03.08-.05l.13-.41,1.79-5.9c.03-.09.16-.06.16.03v11.36s.04.08.08.08h2.17s.08-.04.08-.08v-14.95s-.04-.08-.08-.08h-3.3Z"/>
  <path class="cls-11" d="M90.05,9.05h-10.25s-.08.04-.08.08v1.87s.04.08.08.08h3.96v13.01s.04.08.08.08h2.17s.08-.04.08-.08v-13.01h3.96s.08-.04.08-.08v-1.87s-.03-.08-.08-.08Z"/>
  <path class="cls-11" d="M102.85,24.16h1.97c.05,0,.09-.05.08-.1l-4.08-15.01s-.04-.05-.08-.05h-2.83s-.07.03-.08.05l-4.08,15.01c-.01.05.03.1.08.1h1.97s.06-.03.08-.05l1.18-4.37s.04-.05.08-.05h4.37s.07.03.08.05l1.18,4.37s.05.05.08.05ZM97.67,17.55l1.58-5.84c.03-.08.13-.08.16,0l1.58,5.84c.01.05-.03.1-.08.1h-3.17c-.05,0-.09-.05-.08-.1Z"/>
  <path class="cls-11" d="M136.52,24.16h1.97c.05,0,.09-.05.08-.1l-4.08-15.01s-.04-.05-.08-.05h-2.83s-.07.03-.08.05l-4.08,15.01c-.01.05.03.1.08.1h1.97s.07-.03.08-.05l1.18-4.37s.04-.05.08-.05h4.37s.07.03.08.05l1.18,4.37s.04.05.08.05ZM131.34,17.55l1.59-5.84c.03-.08.13-.08.16,0l1.59,5.84c.01.05-.03.1-.08.1h-3.17c-.05,0-.09-.05-.08-.1Z"/>
  <path class="cls-11" d="M67.22,21.94v-4.64s.04-.08.08-.08h5.78s.08-.04.08-.08v-1.87s-.04-.08-.08-.08h-5.78s-.08-.04-.08-.08v-3.96s.04-.08.08-.08h6.57s.08-.04.08-.08v-1.87s-.04-.08-.08-.08h-8.9s-.08.04-.08.08v14.94s.04.08.08.08h9.17s.08-.04.08-.08v-1.97s-.04-.08-.08-.08h-6.86s-.06-.04-.06-.09Z"/>
  <path class="cls-11" d="M171.08,24.03l-7.51-7.74s-.03-.08,0-.1l6.76-7c.05-.05.01-.13-.05-.13h-2.77s-.04.01-.05.03l-5.73,5.93c-.05.05-.13.01-.13-.05v-5.83s-.04-.08-.08-.08h-2.17s-.08.04-.08.08v14.95s.04.08.08.08h2.17s.08-.04.08-.08v-6.58c0-.06.09-.1.13-.05l6.49,6.69s.04.03.05.03h2.77c.05-.01.09-.1.04-.14Z"/>
  <path class="cls-5" d="M32.96,1l-13.13,9.72,2.44-5.73,10.69-3.99Z"/>
  <path class="cls-7" d="M2.66,1l13.02,9.81-2.33-5.82L2.66,1Z"/>
  <path class="cls-7" d="M28.23,23.53l-3.49,5.34,7.48,2.06,2.14-7.28-6.13-.12Z"/>
  <path class="cls-7" d="M1.27,23.65l2.13,7.28,7.47-2.06-3.48-5.34-6.12.12Z"/>
  <path class="cls-7" d="M10.47,14.51l-2.08,3.14,7.4.34-.25-7.97-5.08,4.5Z"/>
  <path class="cls-7" d="M25.15,14.52l-5.16-4.59-.17,8.06,7.4-.34-2.08-3.14Z"/>
  <path class="cls-7" d="M10.87,28.87l4.48-2.16-3.86-3.01-.62,5.17Z"/>
  <path class="cls-7" d="M20.27,26.71l4.47,2.16-.61-5.17-3.86,3.01Z"/>
  <path class="cls-4" d="M24.73,28.87l-4.47-2.16.36,2.9-.04,1.23,4.14-1.97Z"/>
  <path class="cls-4" d="M10.87,28.87l4.16,1.97-.03-1.23.35-2.9-4.48,2.16Z"/>
  <path class="cls-8" d="M15.11,21.78l-3.72-1.09,2.62-1.21,1.09,2.29Z"/>
  <path class="cls-8" d="M20.51,21.78l1.09-2.29,2.64,1.21-3.73,1.09Z"/>
  <path class="cls-2" d="M10.87,28.87l.65-5.34-4.13.12,3.48,5.22Z"/>
  <path class="cls-2" d="M24.1,23.53l.64,5.34,3.49-5.22-4.13-.12Z"/>
  <path class="cls-2" d="M27.23,17.65l-7.4.34.69,3.8,1.09-2.29,2.64,1.21,2.99-3.05Z"/>
  <path class="cls-2" d="M11.39,20.7l2.62-1.21,1.09,2.29.69-3.8-7.4-.34,3,3.05Z"/>
  <path class="cls-6" d="M8.39,17.65l3.1,6.05-.1-3.01-3-3.05Z"/>
  <path class="cls-6" d="M24.24,20.7l-.12,3.01,3.1-6.05-2.99,3.05Z"/>
  <path class="cls-6" d="M15.8,17.99l-.69,3.8.87,4.48.19-5.91-.38-2.37Z"/>
  <path class="cls-6" d="M19.82,17.99l-.36,2.36.18,5.92.87-4.48-.69-3.8Z"/>
  <path class="cls-3" d="M20.51,21.78l-.87,4.48.62.44,3.86-3.01.12-3.01-3.73,1.09Z"/>
  <path class="cls-3" d="M11.39,20.7l.1,3.01,3.86,3.01.62-.44-.87-4.48-3.72-1.09Z"/>
  <path class="cls-1" d="M20.59,30.84l.04-1.23-.34-.29h-4.96l-.32.29.03,1.23-4.16-1.97,1.46,1.19,2.95,2.03h5.05l2.96-2.03,1.44-1.19-4.14,1.97Z"/>
  <path class="cls-10" d="M20.27,26.71l-.62-.44h-3.66l-.62.44-.35,2.9.32-.29h4.96l.34.29-.36-2.9Z"/>
  <path class="cls-9" d="M33.52,11.35l1.1-5.36-1.66-4.99-12.69,9.39,4.88,4.12,6.9,2.01,1.52-1.78-.66-.48,1.05-.96-.81-.62,1.05-.8-.69-.53Z"/>
  <path class="cls-9" d="M1,5.99l1.12,5.36-.71.53,1.07.8-.81.62,1.05.96-.66.48,1.52,1.78,6.9-2.01,4.88-4.12L2.66,1l-1.66,4.99Z"/>
  <path class="cls-3" d="M32.05,16.52l-6.9-2.01,2.08,3.14-3.1,6.05,4.11-.05h6.13l-2.31-7.13Z"/>
  <path class="cls-3" d="M10.47,14.51l-6.9,2.01-2.3,7.13h6.12l4.11.05-3.1-6.05,2.08-3.14Z"/>
  <path class="cls-3" d="M19.82,17.99l.44-7.59,2-5.4h-8.91l2,5.4.44,7.59.17,2.38v5.9h3.68v-5.9s.18-2.38.18-2.38Z"/>
</svg>
