<?xml version='1.0' encoding='utf-8'?>
<svg xmlns="http://www.w3.org/2000/svg" clip-rule="evenodd" fill-rule="evenodd" image-rendering="optimizeQuality" shape-rendering="geometricPrecision" text-rendering="geometricPrecision" version="1.1" viewBox="0 0 9144 9144"> <defs> <style type="text/css">.fil2 {fill:#179BD7} .fil0 {fill:white} .fil1 {fill:#253B80;fill-rule:nonzero}</style> </defs> <polygon class="fil0" points="0 0 9144 0 9144 9144 0 9144"/> <path class="fil1" d="m5997 3797c2 2 4 3 6 5l-6-5z"/> <path class="fil2" d="m5997 3797c-7 66-19 130-35 192-56 209-167 396-316 545-220 220-525 357-861 357h-792l-359 1329c-33 213-65 367-65 367-9 46 21 91 67 100 5 1 11 2 16 2h807c44 0 81-35 84-78l145-1008h672c285 0 543-113 730-295 188-183 304-436 304-715 0-157-37-306-103-439-68-138-167-258-288-352l-6-5z"/> <path class="fil1" d="m3814 6161c-3 20-6 40-9 59h-970v-1h-12c-46-7-78-50-72-96l504-3589c3-44 40-79 85-79h1445c337 0 641 137 862 357 220 220 356 525 356 861 0 42-2 83-6 124-7 66-19 130-35 192-56 209-167 396-316 545-220 220-525 357-861 357h-792l-175 1250c-1 7-2 14-4 20z"/> </svg>