<?xml version="1.0" encoding="UTF-8"?>
<svg id="Layer_1" data-name="Layer 1" xmlns="http://www.w3.org/2000/svg" viewBox="0 0 32.19 62.33">
  <path d="M29.52,20.12l-2.66-3.03h.03v-7.22h2.53V2.25c0-1.24-1.01-2.25-2.25-2.25H5.02c-1.24,0-2.25,1.01-2.25,2.25v7.63h2.53v7.22h.03l-2.66,3.03c-1.72,1.96-2.67,4.47-2.67,7.08v27.28c0,4.34,3.52,7.86,7.86,7.86h16.3c4.44,0,8.03-3.6,8.03-8.03v-27.11c0-2.6-.95-5.12-2.67-7.08ZM26.95,39.53v14.94c0,1.45-1.18,2.63-2.63,2.63H7.86c-1.45,0-2.62-1.17-2.62-2.62v-27.28c0-1.33.49-2.62,1.37-3.62l5.16-5.87v-7.84h8.66v7.84l5.16,5.87c.88,1,1.36,2.29,1.36,3.62v12.34Z" style="fill: #e51c43;"/>
  <path d="M19.19,28.55c-5.36-3.25-11.51-.82-11.51-.82v24.25c0,1.46,1.18,2.64,2.64,2.64h11.54c1.46,0,2.64-1.18,2.64-2.64v-22.78s-3.02.74-5.3-.65Z" style="fill: #fff;"/>
</svg>
