<?xml version="1.0" encoding="UTF-8"?>
<svg id="Layer_1" data-name="Layer 1" xmlns="http://www.w3.org/2000/svg" viewBox="0 0 360 360">
  <path d="M290,360H70c-38.66,0-70-31.34-70-70V70C0,31.34,31.34,0,70,0h220c38.66,0,70,31.34,70,70v220c0,38.66-31.34,70-70,70Z" style="fill: #6c0cea;"/>
  <path d="M115,125h140c5.52,0,10-4.48,10-10v-25c0-5.52-4.48-10-10-10H115c-5.52,0-10,4.48-10,10v25c0,5.52,4.48,10,10,10Z" style="fill: #fff;"/>
  <path d="M110,285h145c5.52,0,10-4.48,10-10v-25c0-5.52-4.48-10-10-10H110c-5.52,0-10,4.48-10,10v25c0,5.52,4.48,10,10,10Z" style="fill: #fff;"/>
  <path d="M162.5,50v60c0,2.76,2.24,5,5,5h35c2.76,0,5-2.24,5-5v-60c0-2.76-2.24-5-5-5h-35c-2.76,0-5,2.24-5,5Z" style="fill: #fff;"/>
  <path d="M162.5,260v60c0,2.76,2.24,5,5,5h35c2.76,0,5-2.24,5-5v-60c0-2.76-2.24-5-5-5h-35c-2.76,0-5,2.24-5,5Z" style="fill: #fff;"/>
  <path d="M105.78,249.38h54.22l102.94-128.39c1.78-2.22.19-5.52-2.66-5.52h-55.28l-102.25,127.51c-2.1,2.55-.28,6.4,3.03,6.4Z" style="fill: #fff;"/>
</svg>