<?xml version="1.0" encoding="UTF-8"?>
<svg id="Layer_2" data-name="Layer 2" xmlns="http://www.w3.org/2000/svg" viewBox="0 0 3264.37 3793.19">
  <g id="Layer_1-2" data-name="Layer 1" image-rendering="optimizeQuality" shape-rendering="geometricPrecision" text-rendering="geometricPrecision">
    <path d="M2908.7,1202.28c1.79,1.79,3.58,2.69,5.38,4.48l-5.38-4.48Z" style="fill: #253b80;"/>
    <path d="M2908.7,1202.28c-6.27,59.13-17.02,116.47-31.36,172.01-50.17,187.24-149.61,354.77-283.1,488.26-197.1,197.1-470.34,319.83-771.36,319.83h-709.54l-321.62,1190.64c-29.56,190.82-58.23,328.79-58.23,328.79-8.06,41.21,18.81,81.53,60.02,89.59,4.48.9,9.85,1.79,14.33,1.79h722.98c39.42,0,72.57-31.36,75.25-69.88l129.9-903.06h602.04c255.33,0,486.47-101.24,654-264.29,168.43-163.95,272.35-390.61,272.35-640.56,0-140.65-33.15-274.14-92.28-393.29-60.92-123.63-149.61-231.14-258.02-315.35l-5.38-4.48Z" style="fill: #179bd7; fill-rule: evenodd;"/>
    <path d="M952.98,3320.16c-2.69,17.92-5.38,35.84-8.06,52.86H75.9v-.9h-10.75c-41.21-6.27-69.88-44.79-64.5-86.01L452.18,70.78C454.86,31.36,488.01,0,528.33,0h1294.56c301.91,0,574.26,122.74,772.26,319.83,197.1,197.1,318.94,470.34,318.94,771.36,0,37.63-1.79,74.36-5.38,111.09-6.27,59.13-17.02,116.47-31.36,172.01-50.17,187.24-149.61,354.77-283.1,488.26-197.1,197.1-470.34,319.83-771.36,319.83h-709.54l-156.78,1119.86c-.9,6.27-1.79,12.54-3.58,17.92Z" style="fill: #253b80;"/>
  </g>
</svg>