<svg width="260" height="71" viewBox="0 0 260 71" fill="none" xmlns="http://www.w3.org/2000/svg"><path fill-rule="evenodd" clip-rule="evenodd" d="M178.3 0.534896C179.147 0.209724 180.05 0.0580479 180.956 0.0888707L180.963 0.0949827C181.862 0.054116 182.761 0.20133 183.601 0.527256C184.44 0.853183 185.203 1.35065 185.84 1.98787C186.476 2.62509 186.973 3.38807 187.298 4.22809C187.623 5.06812 187.769 5.96673 187.728 6.86654C187.762 7.7717 187.612 8.67427 187.287 9.52005C186.963 10.3658 186.471 11.1372 185.841 11.788C185.206 12.432 184.443 12.9368 183.603 13.27C182.762 13.6033 181.86 13.7578 180.956 13.7236C180.047 13.7569 179.14 13.6024 178.292 13.2696C177.445 12.9369 176.676 12.4331 176.031 11.7897C175.388 11.1463 174.883 10.3771 174.549 9.52998C174.216 8.68295 174.061 7.77628 174.093 6.86654C174.06 5.96262 174.215 5.06169 174.548 4.22079C174.881 3.37989 175.386 2.61739 176.029 1.98172C176.681 1.35208 177.454 0.860068 178.3 0.534896ZM222.555 18.2491C219.743 16.5761 216.195 15.7416 211.912 15.7456C205.172 15.7456 199.896 17.665 196.086 21.5037C192.275 25.3424 190.37 30.6343 190.37 37.3795C190.273 41.4575 191.163 45.4985 192.965 49.1582C194.615 52.4193 197.183 55.1259 200.354 56.9433C203.545 58.7877 207.341 59.7118 211.741 59.7154C215.548 59.7154 218.727 59.1294 221.279 57.9573C223.679 56.9043 225.768 55.2538 227.349 53.1639C228.854 51.112 229.971 48.8026 230.646 46.3494L220.266 43.4428C219.829 45.0381 218.988 46.4936 217.823 47.6683C216.651 48.8406 214.687 49.4268 211.931 49.4268C208.654 49.4268 206.212 48.4886 204.603 46.6119C203.438 45.2564 202.705 43.3207 202.381 40.8111H230.805C230.921 39.6388 230.982 38.6557 230.982 37.8619V35.2668C231.051 31.7805 230.33 28.3238 228.875 25.1551C227.513 22.2685 225.31 19.8612 222.555 18.2491ZM211.565 25.6802C216.449 25.6802 219.22 28.084 219.875 32.8915H202.595C202.869 31.2874 203.534 29.7755 204.531 28.489C206.114 26.6124 208.459 25.6762 211.565 25.6802ZM96.8141 17.8512C99.5093 16.5607 102.996 15.9155 107.274 15.9155C113.596 15.9155 118.163 17.381 120.976 20.312C123.789 23.2429 125.196 27.3767 125.196 32.7134V58.5359H114.999L113.447 48.3389H113.038C112.488 50.6628 111.463 52.8476 110.028 54.7565C107.598 57.8625 104.125 59.4152 99.6112 59.4152C95.9717 59.4277 92.9511 58.4324 90.5497 56.4293C88.1478 54.4268 86.9471 51.3736 86.9471 47.2704C86.943 43.2648 88.1437 40.0407 90.5497 37.5983C92.9552 35.1558 96.9119 33.9346 102.42 33.9346H113.24V32.8233C113.24 30.5946 112.721 28.9032 111.701 27.682C110.671 26.4608 109.014 25.8502 106.731 25.8502C104.994 25.7696 103.283 26.2988 101.895 27.3462C100.674 28.3476 99.8593 30.0471 99.4521 32.4448L88.1988 30.8632C88.4952 28.1478 89.3631 25.5259 90.7447 23.1696C92.1893 20.8287 94.3041 18.9758 96.8141 17.8512ZM104.465 49.7677C107.103 49.7677 109.222 49.096 110.84 47.7466C111.614 47.1246 112.234 46.3331 112.654 45.4332C113.073 44.5333 113.28 43.549 113.258 42.5564V41.8542H102.615C102.085 41.8252 101.555 41.9039 101.057 42.0855C100.558 42.267 100.102 42.5477 99.7147 42.9106C99.3569 43.2836 99.0787 43.7255 98.8973 44.2094C98.7158 44.6934 98.6341 45.2092 98.6586 45.7255C98.6451 46.273 98.7527 46.8167 98.9732 47.3179C99.1937 47.8192 99.5223 48.2658 99.9347 48.6259C100.781 49.3871 102.291 49.7677 104.465 49.7677ZM61.0188 48.2486L61.0552 48.3646H84.5088V58.562H46.3458V48.3646L69.2374 27.1826L69.201 27.0849H47.048V16.8877H84.1365V27.0849L61.0188 48.2486ZM186.851 16.8877H174.804V58.5678H186.851V16.8877ZM249.929 20.4903C251.891 18.0885 254.574 16.8877 257.977 16.8877H259.998V28.8373H255.424C252.029 28.8373 249.701 29.5558 248.439 30.9928C247.177 32.4298 246.547 34.4957 246.547 37.1905V58.562H234.499V16.8877H244.788L246.363 28.1412H246.717C247.45 24.7666 248.52 22.2163 249.929 20.4903ZM156.073 15.7456C151.97 15.7456 148.673 17.034 146.181 19.6107C144.337 21.5199 142.984 24.3694 142.121 28.1592H141.736L140.161 16.9057H129.871V70.5418H141.919V48.4499H142.359C142.726 49.9229 143.242 51.3549 143.897 52.724C144.917 54.9543 146.588 56.8237 148.691 58.0852C150.871 59.275 153.327 59.8672 155.81 59.8012C160.854 59.8012 164.695 57.8372 167.333 53.9086C169.97 49.9804 171.289 44.4992 171.289 37.465C171.289 30.671 170.013 25.3525 167.461 21.5097C164.909 17.667 161.113 15.7456 156.073 15.7456ZM157.294 45.9463C155.89 47.9817 153.692 48.9994 150.7 48.9994C149.466 49.0563 148.236 48.8185 147.113 48.3057C145.989 47.7928 145.005 47.0196 144.24 46.0502C142.68 44.0921 141.903 41.4116 141.907 38.0084V37.2146C141.907 33.7586 142.684 31.1126 144.24 29.2767C145.794 27.4408 147.948 26.533 150.7 26.5534C153.745 26.5534 155.957 27.5202 157.337 29.4537C158.717 31.3874 159.407 34.0842 159.407 37.5443C159.415 41.1225 158.715 43.9232 157.306 45.9463H157.294ZM0 48.3638H41.6802V58.5733H0V48.3638Z" fill="black" style="fill:black;fill-opacity:1;"/></svg>