<?xml version="1.0" encoding="UTF-8"?><svg xmlns="http://www.w3.org/2000/svg" width="600" height="600" xmlns:xlink="http://www.w3.org/1999/xlink" viewBox="0 0 600 600"><defs><linearGradient id="linear-gradient" x1="437.76" y1="300.16" x2="162.52" y2="300.16" gradientUnits="userSpaceOnUse"><stop offset=".66" stop-color="#000"/><stop offset=".8" stop-color="#020202"/><stop offset=".86" stop-color="#090909"/><stop offset=".91" stop-color="#171717"/><stop offset=".96" stop-color="#292929"/><stop offset="1" stop-color="#414141"/><stop offset="1" stop-color="#444"/></linearGradient><linearGradient id="linear-gradient-2" x1="162.52" y1="300.16" x2="437.76" y2="300.16" xlink:href="#linear-gradient"/><linearGradient id="linear-gradient-3" x1="300.14" y1="116.66" x2="300.14" y2="483.65" gradientUnits="userSpaceOnUse"><stop offset=".66" stop-color="#000"/><stop offset=".79" stop-color="#020202"/><stop offset=".85" stop-color="#090909"/><stop offset=".9" stop-color="#171717"/><stop offset=".94" stop-color="#292929"/><stop offset=".98" stop-color="#414141"/><stop offset="1" stop-color="#555"/></linearGradient><linearGradient id="linear-gradient-4" x1="300.14" y1="483.65" x2="300.14" y2="116.66" gradientUnits="userSpaceOnUse"><stop offset=".66" stop-color="#666"/><stop offset=".78" stop-color="#686868"/><stop offset=".84" stop-color="#6f6f6f"/><stop offset=".89" stop-color="#7d7d7d"/><stop offset=".93" stop-color="#8f8f8f"/><stop offset=".96" stop-color="#a8a8a8"/><stop offset=".99" stop-color="#c5c5c5"/><stop offset="1" stop-color="#ccc"/></linearGradient><radialGradient id="radial-gradient" cx="333.13" cy="254.18" fx="333.13" fy="254.18" r="89.02" gradientTransform="translate(277.3 -161.11) rotate(45)" gradientUnits="userSpaceOnUse"><stop offset="0" stop-color="#444"/><stop offset=".2" stop-color="#2b2b2b"/><stop offset=".46" stop-color="#131313"/><stop offset=".69" stop-color="#050505"/><stop offset=".89" stop-color="#000"/></radialGradient><linearGradient id="linear-gradient-5" x1="161.17" y1="484.58" x2="439.11" y2="115.74" gradientUnits="userSpaceOnUse"><stop offset="0" stop-color="#ddd"/><stop offset=".06" stop-color="#b3c2c1"/><stop offset=".1" stop-color="#9fb5b4"/><stop offset=".15" stop-color="#b7c7c6"/><stop offset=".22" stop-color="#d3dcdc"/><stop offset=".28" stop-color="#e7ebeb"/><stop offset=".35" stop-color="#f3f4f4"/><stop offset=".42" stop-color="#f8f8f8"/><stop offset=".52" stop-color="#f4f5f5"/><stop offset=".61" stop-color="#e9eded"/><stop offset=".7" stop-color="#d7e0e0"/><stop offset=".78" stop-color="#bdcecd"/><stop offset=".86" stop-color="#9db6b5"/><stop offset=".87" stop-color="#98b3b2"/><stop offset=".91" stop-color="#9ab4b3"/><stop offset=".94" stop-color="#a3bab9"/><stop offset=".96" stop-color="#b3c3c3"/><stop offset=".98" stop-color="#c8d0d0"/><stop offset="1" stop-color="#ddd"/></linearGradient><radialGradient id="radial-gradient-2" cx="-164.18" cy="-59.73" fx="-164.18" fy="-59.73" r="41.98" gradientTransform="translate(239.02 388.4) rotate(-166.96)" gradientUnits="userSpaceOnUse"><stop offset="0" stop-color="#777"/><stop offset=".01" stop-color="#727272"/><stop offset=".14" stop-color="#4f4f4f"/><stop offset=".28" stop-color="#323232"/><stop offset=".42" stop-color="#1c1c1c"/><stop offset=".58" stop-color="#0c0c0c"/><stop offset=".76" stop-color="#020202"/><stop offset="1" stop-color="#000"/></radialGradient><radialGradient id="radial-gradient-3" cx="73.13" cy="956.86" fx="73.13" fy="956.86" r="39.7" gradientTransform="translate(529.24 811.09) rotate(-180) scale(1.97 .34)" gradientUnits="userSpaceOnUse"><stop offset="0" stop-color="#ccc"/><stop offset=".1" stop-color="#9c9c9c"/><stop offset=".2" stop-color="#737373"/><stop offset=".3" stop-color="#4f4f4f"/><stop offset=".41" stop-color="#323232"/><stop offset=".53" stop-color="#1c1c1c"/><stop offset=".66" stop-color="#0c0c0c"/><stop offset=".8" stop-color="#020202"/><stop offset="1" stop-color="#000"/></radialGradient><radialGradient id="radial-gradient-4" cx="265.51" cy="721.08" fx="265.51" fy="721.08" r="19.12" gradientTransform="translate(551.47 837.75) rotate(-180)" xlink:href="#radial-gradient-2"/><radialGradient id="radial-gradient-5" cx="291.7" cy="3238.62" fx="291.7" fy="3238.62" r="18.08" gradientTransform="translate(859.41 1224.92) rotate(-180) scale(1.97 .34)" xlink:href="#radial-gradient-3"/><radialGradient id="radial-gradient-6" cx="258.25" cy="417.8" fx="258.25" fy="417.8" r="50.85" gradientTransform="translate(-147.36 437.57) rotate(-99.07)" xlink:href="#radial-gradient-2"/><radialGradient id="radial-gradient-7" cx="288.01" cy="2352.35" fx="288.01" fy="2352.35" r="48.09" gradientTransform="translate(790.69 921.64) rotate(-180) scale(1.97 .34)" xlink:href="#radial-gradient-3"/></defs><g style="isolation:isolate;"><g id="Background"><rect width="600" height="600" style="fill:#d4dddd;"/></g><g id="Glass_Banner"><g id="shadow" style="mix-blend-mode:color-burn;"><rect x="156.21" y="109" width="303.38" height="404.51" rx="25.16" ry="25.16" style="fill:#fff;"/><rect x="156.48" y="109.29" width="302.84" height="403.79" rx="25.12" ry="25.12" style="fill:#fefefe;"/><rect x="156.74" y="109.58" width="302.3" height="403.07" rx="25.07" ry="25.07" style="fill:#fdfdfd;"/><rect x="157.01" y="109.87" width="301.76" height="402.35" rx="25.03" ry="25.03" style="fill:#fcfcfc;"/><rect x="157.27" y="110.16" width="301.22" height="401.62" rx="24.98" ry="24.98" style="fill:#fbfbfb;"/><rect x="157.53" y="110.45" width="300.68" height="400.9" rx="24.94" ry="24.94" style="fill:#fafafa;"/><rect x="157.8" y="110.74" width="300.14" height="400.18" rx="24.89" ry="24.89" style="fill:#f9f9f9;"/><rect x="158.06" y="111.03" width="299.59" height="399.46" rx="24.85" ry="24.85" style="fill:#f8f8f8;"/><rect x="158.32" y="111.32" width="299.05" height="398.74" rx="24.8" ry="24.8" style="fill:#f7f7f7;"/><path d="M183.34,111.61h249c13.66,0,24.76,11.09,24.76,24.76v348.5c0,13.66-11.09,24.76-24.76,24.76h-249c-13.66,0-24.76-11.09-24.76-24.76V136.36c0-13.66,11.09-24.76,24.76-24.76Z" style="fill:#f6f6f6;"/><rect x="158.85" y="111.9" width="297.97" height="397.29" rx="24.71" ry="24.71" style="fill:#f5f5f5;"/><rect x="159.11" y="112.19" width="297.43" height="396.57" rx="24.67" ry="24.67" style="fill:#f4f4f4;"/><rect x="159.38" y="112.48" width="296.89" height="395.85" rx="24.62" ry="24.62" style="fill:#f3f3f3;"/><rect x="159.64" y="112.77" width="296.35" height="395.13" rx="24.58" ry="24.58" style="fill:#f2f2f2;"/><rect x="159.9" y="113.06" width="295.81" height="394.41" rx="24.53" ry="24.53" style="fill:#f1f1f1;"/><rect x="160.17" y="113.35" width="295.26" height="393.69" rx="24.49" ry="24.49" style="fill:#f0f0f0;"/><rect x="160.43" y="113.63" width="294.72" height="392.96" rx="24.44" ry="24.44" style="fill:#efefef;"/><path d="M185.09,113.92h245.39c13.47,0,24.4,10.93,24.4,24.4v343.45c0,13.47-10.93,24.4-24.4,24.4h-245.39c-13.47,0-24.4-10.93-24.4-24.4V138.32c0-13.47,10.93-24.4,24.4-24.4Z" style="fill:#eee;"/><path d="M185.31,114.21h244.93c13.44,0,24.35,10.91,24.35,24.35v342.81c0,13.44-10.91,24.35-24.35,24.35h-244.93c-13.44,0-24.35-10.91-24.35-24.35V138.57c0-13.44,10.91-24.35,24.35-24.35Z" style="fill:#ededed;"/><rect x="161.22" y="114.5" width="293.1" height="390.8" rx="24.31" ry="24.31" style="fill:#ececec;"/><rect x="161.48" y="114.79" width="292.56" height="390.08" rx="24.26" ry="24.26" style="fill:#ebebeb;"/><rect x="161.75" y="115.08" width="292.02" height="389.36" rx="24.22" ry="24.22" style="fill:#eaeaea;"/><rect x="162.01" y="115.37" width="291.48" height="388.63" rx="24.17" ry="24.17" style="fill:#e9e9e9;"/><rect x="162.27" y="115.66" width="290.93" height="387.91" rx="24.13" ry="24.13" style="fill:#e8e8e8;"/><rect x="162.54" y="115.95" width="290.39" height="387.19" rx="24.08" ry="24.08" style="fill:#e7e7e7;"/><rect x="162.8" y="116.24" width="289.85" height="386.47" rx="24.04" ry="24.04" style="fill:#e6e6e6;"/><rect x="163.07" y="116.53" width="289.31" height="385.75" rx="23.99" ry="23.99" style="fill:#e6e6e6;"/><rect x="163.33" y="116.82" width="288.77" height="385.03" rx="23.95" ry="23.95" style="fill:#e5e5e5;"/><rect x="163.59" y="117.11" width="288.23" height="384.31" rx="23.9" ry="23.9" style="fill:#e4e4e4;"/><rect x="163.86" y="117.4" width="287.69" height="383.58" rx="23.86" ry="23.86" style="fill:#e3e3e3;"/><rect x="164.12" y="117.69" width="287.15" height="382.86" rx="23.81" ry="23.81" style="fill:#e2e2e2;"/><rect x="164.38" y="117.98" width="286.61" height="382.14" rx="23.77" ry="23.77" style="fill:#e1e1e1;"/><rect x="164.65" y="118.27" width="286.06" height="381.42" rx="23.73" ry="23.73" style="fill:#e0e0e0;"/><rect x="164.91" y="118.56" width="285.52" height="380.7" rx="23.68" ry="23.68" style="fill:#dfdfdf;"/><rect x="165.17" y="118.85" width="284.98" height="379.98" rx="23.64" ry="23.64" style="fill:#dedede;"/><path d="M189.03,119.14h237.26c13.02,0,23.59,10.57,23.59,23.59v332.07c0,13.02-10.57,23.59-23.59,23.59h-237.26c-13.02,0-23.59-10.57-23.59-23.59V142.73c0-13.02,10.57-23.59,23.59-23.59Z" style="fill:#ddd;"/><rect x="165.7" y="119.43" width="283.9" height="378.53" rx="23.55" ry="23.55" style="fill:#dcdcdc;"/><rect x="165.96" y="119.72" width="283.36" height="377.81" rx="23.5" ry="23.5" style="fill:#dbdbdb;"/><rect x="166.23" y="120.01" width="282.82" height="377.09" rx="23.46" ry="23.46" style="fill:#dadada;"/><rect x="166.49" y="120.3" width="282.28" height="376.37" rx="23.41" ry="23.41" style="fill:#d9d9d9;"/><rect x="166.75" y="120.59" width="281.73" height="375.65" rx="23.37" ry="23.37" style="fill:#d8d8d8;"/><rect x="167.02" y="120.88" width="281.19" height="374.92" rx="23.32" ry="23.32" style="fill:#d7d7d7;"/><rect x="167.28" y="121.17" width="280.65" height="374.2" rx="23.28" ry="23.28" style="fill:#d6d6d6;"/><rect x="167.54" y="121.46" width="280.11" height="373.48" rx="23.23" ry="23.23" style="fill:#d5d5d5;"/><path d="M190.99,121.75h233.2c12.8,0,23.19,10.39,23.19,23.19v326.39c0,12.8-10.39,23.19-23.19,23.19h-233.2c-12.8,0-23.19-10.39-23.19-23.19V144.93c0-12.8,10.39-23.19,23.19-23.19Z" style="fill:#d4d4d4;"/><rect x="168.07" y="122.03" width="279.03" height="372.04" rx="23.14" ry="23.14" style="fill:#d3d3d3;"/><rect x="168.34" y="122.32" width="278.49" height="371.32" rx="23.1" ry="23.1" style="fill:#d2d2d2;"/><rect x="168.6" y="122.61" width="277.95" height="370.59" rx="23.05" ry="23.05" style="fill:#d1d1d1;"/><rect x="168.86" y="122.9" width="277.4" height="369.87" rx="23.01" ry="23.01" style="fill:#d0d0d0;"/><rect x="169.13" y="123.19" width="276.86" height="369.15" rx="22.96" ry="22.96" style="fill:#cfcfcf;"/><rect x="169.39" y="123.48" width="276.32" height="368.43" rx="22.92" ry="22.92" style="fill:#cecece;"/><rect x="169.65" y="123.77" width="275.78" height="367.71" rx="22.87" ry="22.87" style="fill:#cdcdcd;"/><rect x="169.92" y="124.06" width="275.24" height="366.99" rx="22.83" ry="22.83" style="fill:#ccc;"/></g><g id="glass"><rect x="162.52" y="116.66" width="275.24" height="366.99" style="fill:#0d2621; mix-blend-mode:screen;"/><rect x="162.52" y="116.66" width="275.24" height="366.99" style="fill:url(#linear-gradient); mix-blend-mode:screen;"/><rect x="162.52" y="116.66" width="275.24" height="366.99" style="fill:url(#linear-gradient-2); mix-blend-mode:screen;"/><rect x="162.52" y="116.66" width="275.24" height="366.99" style="fill:url(#linear-gradient-3); mix-blend-mode:screen;"/><rect x="162.52" y="116.66" width="275.24" height="366.99" style="fill:url(#linear-gradient-4); mix-blend-mode:soft-light;"/><polygon points="162.52 116.66 162.52 483.65 254.34 483.65 377.73 116.66 162.52 116.66" style="fill:#999; mix-blend-mode:soft-light;"/><path d="M437.76,227.93v-111.27H162.52v197.14c5.12-2.18,10.28-4.35,15.47-6.5,91.51-37.84,180.66-64.45,259.77-79.38Z" style="fill:#9f9f9f; mix-blend-mode:soft-light;"/><circle cx="333.13" cy="254.18" r="89.02" transform="translate(-82.16 310) rotate(-45)" style="fill:url(#radial-gradient); mix-blend-mode:screen;"/><path d="M438.87,484.76H161.41V115.55h277.46v369.21ZM163.63,482.54h273.02V117.77H163.63v364.77Z" style="fill:url(#linear-gradient-5); mix-blend-mode:multiply;"/><circle cx="385.48" cy="483.65" r="41.98" transform="translate(-99.21 99.48) rotate(-13.04)" style="fill:url(#radial-gradient-2); mix-blend-mode:screen;"/><ellipse cx="385.48" cy="483.65" rx="82.52" ry="16.82" style="fill:url(#radial-gradient-3); mix-blend-mode:screen;"/><path d="M285.96,135.79c10.56,0,19.12-8.56,19.12-19.12,0-10.56-8.56-19.12-19.12-19.12s-19.12,8.56-19.12,19.12,8.56,19.12,19.12,19.12Z" style="fill:url(#radial-gradient-4); mix-blend-mode:screen;"/><path d="M285.96,124.33c20.76,0,37.59-3.43,37.59-7.66,0-4.23-16.83-7.66-37.59-7.66s-37.59,3.43-37.59,7.66,16.83,7.66,37.59,7.66Z" style="fill:url(#radial-gradient-5); mix-blend-mode:screen;"/><circle cx="224.5" cy="116.66" r="50.85" transform="translate(73.89 319.95) rotate(-80.93)" style="fill:url(#radial-gradient-6); mix-blend-mode:screen;"/><ellipse cx="224.5" cy="116.66" rx="99.96" ry="20.38" style="fill:url(#radial-gradient-7); mix-blend-mode:screen;"/></g></g></g></svg>