<?xml version="1.0" encoding="UTF-8"?>
<svg xmlns="http://www.w3.org/2000/svg" viewBox="0 0 100 100" fill="none">
  <!-- Vial Body -->
  <rect x="30" y="20" width="40" height="65" rx="8" ry="8" fill="#E5E7EB" stroke="#9CA3AF" stroke-width="2"/>
  
  <!-- Vial Cap -->
  <rect x="28" y="15" width="44" height="10" rx="5" ry="5" fill="#6B7280" stroke="#4B5563" stroke-width="1"/>
  
  <!-- Liquid -->
  <rect x="32" y="45" width="36" height="38" rx="6" ry="6" fill="#3B82F6" opacity="0.7"/>
  
  <!-- Label -->
  <rect x="34" y="25" width="32" height="15" rx="2" ry="2" fill="#FFFFFF" stroke="#D1D5DB" stroke-width="1"/>
  
  <!-- Label Text Lines -->
  <line x1="37" y1="29" x2="63" y2="29" stroke="#6B7280" stroke-width="1"/>
  <line x1="37" y1="33" x2="58" y2="33" stroke="#6B7280" stroke-width="1"/>
  <line x1="37" y1="37" x2="55" y2="37" stroke="#6B7280" stroke-width="1"/>
  
  <!-- Measurement marks -->
  <g stroke="#9CA3AF" stroke-width="0.5">
    <line x1="72" y1="50" x2="75" y2="50"/>
    <line x1="72" y1="55" x2="74" y2="55"/>
    <line x1="72" y1="60" x2="75" y2="60"/>
    <line x1="72" y1="65" x2="74" y2="65"/>
    <line x1="72" y1="70" x2="75" y2="70"/>
    <line x1="72" y1="75" x2="74" y2="75"/>
    <line x1="72" y1="80" x2="75" y2="80"/>
  </g>
</svg>
